<?xml version="1.0" standalone="no"?>
<!DOCTYPE svg PUBLIC "-//W3C//DTD SVG 20010904//EN"
 "http://www.w3.org/TR/2001/REC-SVG-20010904/DTD/svg10.dtd">
<svg version="1.0" xmlns="http://www.w3.org/2000/svg"
 width="500.000000pt" height="500.000000pt" viewBox="0 0 500.000000 500.000000"
 preserveAspectRatio="xMidYMid meet">

<g transform="translate(0.000000,500.000000) scale(0.100000,-0.100000)"
fill="#000000" stroke="none">
<path d="M0 2500 l0 -2500 2500 0 2500 0 0 2500 0 2500 -2500 0 -2500 0 0
-2500z m1960 1204 c48 -19 50 -28 11 -44 -16 -6 -42 -25 -57 -42 -28 -28 -26
-28 37 10 36 22 86 46 110 52 43 12 113 7 134 -9 5 -5 35 -14 65 -21 102 -24
166 -68 221 -153 21 -32 40 -71 44 -86 3 -17 14 -31 26 -34 22 -6 25 -37 8
-70 -7 -12 7 -1 29 24 79 89 207 149 316 149 74 0 77 -12 8 -26 -123 -25 -244
-111 -294 -207 -12 -23 -23 -37 -25 -30 -2 6 3 25 11 42 28 53 17 48 -19 -9
-67 -104 -79 -150 -79 -290 0 -92 5 -136 16 -165 l17 -40 1 50 c1 28 5 68 9
90 6 36 8 32 13 -42 5 -65 12 -93 38 -142 33 -62 81 -118 66 -76 -39 105 -47
265 -20 405 26 141 93 252 194 322 60 43 55 47 -22 18 -59 -22 -72 -24 -64
-11 22 35 170 81 261 81 l60 -1 -71 -33 c-126 -59 -201 -125 -264 -231 l-24
-40 24 20 23 20 -7 -20 c-54 -138 -71 -241 -63 -373 3 -54 14 -125 26 -161
l20 -63 -41 5 c-24 3 -56 18 -78 36 -49 39 -57 39 -30 1 31 -43 10 -37 -38 12
-23 23 -42 37 -42 30 0 -22 100 -110 154 -136 37 -18 54 -31 50 -40 -9 -23
-98 -56 -208 -77 -107 -22 -173 -20 -212 5 -23 15 -116 190 -128 239 -9 36 1
67 20 67 8 0 12 4 9 10 -3 5 13 3 35 -5 58 -20 131 -29 185 -20 46 6 47 7 41
38 -3 18 -1 39 4 47 9 13 10 13 10 0 0 -8 10 -26 21 -40 17 -20 19 -21 14 -5
-45 126 -53 216 -31 344 9 52 25 114 36 139 18 40 18 46 4 80 -8 20 -22 45
-31 55 -16 17 -16 18 5 24 28 7 28 15 0 39 -16 13 -19 14 -10 3 10 -14 10 -20
-3 -33 -21 -21 -32 -20 -62 4 -22 17 -23 21 -8 26 14 6 12 10 -12 25 -15 11
-39 18 -53 18 -23 -1 -22 -2 5 -8 43 -9 45 -37 2 -45 -39 -7 -70 1 -64 18 2 6
-3 16 -12 23 -23 17 -36 16 -21 -2 15 -18 15 -19 -29 -34 -46 -15 -74 -14 -68
2 8 21 -61 -17 -108 -59 -22 -19 -30 -30 -18 -25 30 15 73 14 73 -1 0 -10 2
-10 8 -1 21 34 108 33 106 -1 -2 -16 0 -16 15 -2 24 22 77 20 93 -3 7 -10 22
-20 33 -22 12 -2 30 -23 43 -49 19 -37 23 -59 21 -125 -1 -44 3 -138 9 -210
11 -128 4 -205 -18 -205 -6 0 -10 5 -10 11 0 5 -5 7 -10 4 -6 -3 -13 1 -16 9
-3 9 -13 16 -21 16 -20 0 -115 92 -155 151 -26 38 -39 49 -60 49 -16 0 -28 -3
-28 -6 0 -3 28 -35 62 -70 65 -68 67 -77 9 -42 l-36 21 34 -36 c74 -78 -29
-17 -128 77 l-55 51 39 -50 c21 -27 58 -73 82 -102 24 -28 43 -54 43 -57 0
-11 -97 -6 -143 8 -25 7 -58 23 -74 33 -15 11 -34 18 -42 15 -9 -3 -11 0 -6 8
6 9 4 11 -4 5 -16 -9 -103 74 -138 133 -31 52 -38 54 -18 6 20 -49 19 -50 -9
-17 -52 62 -69 112 -73 218 -3 72 -1 96 6 85 6 -8 11 -26 12 -40 0 -14 5 -34
10 -45 8 -18 9 -17 5 5 -15 75 37 245 101 329 15 19 20 32 12 29 -8 -2 -31
-29 -51 -58 -41 -57 -49 -50 -19 15 29 62 77 122 122 152 l41 27 -38 13 c-36
13 -38 12 -90 -27 -63 -47 -92 -84 -133 -166 -34 -68 -50 -129 -53 -198 -1
-47 -18 -54 -18 -8 0 15 -5 34 -10 42 -15 23 -12 -113 4 -188 15 -71 63 -172
101 -216 27 -32 29 -36 16 -36 -19 0 -101 90 -125 138 -98 193 -64 434 83 595
65 71 97 93 164 118 57 21 101 19 167 -7z m1382 -342 c80 -39 134 -95 180
-188 39 -79 42 -90 46 -190 6 -128 -6 -189 -58 -301 -78 -168 -243 -283 -406
-283 -160 0 -301 115 -354 289 -25 81 -28 219 -5 303 48 184 198 350 349 389
61 16 198 5 248 -19z m-1882 -1382 l0 -190 -35 0 -35 0 0 190 0 190 35 0 35 0
0 -190z m269 164 c25 -32 28 -109 6 -138 -13 -17 -13 -22 1 -37 11 -12 14 -35
12 -95 l-3 -79 -35 0 -35 0 -3 83 c-2 64 -6 82 -17 82 -12 0 -15 -17 -15 -85
l0 -85 -35 0 -35 0 0 190 0 190 69 0 c63 0 71 -2 90 -26z m283 -6 c15 -19 18
-45 18 -156 l0 -134 -29 -29 c-20 -20 -39 -29 -61 -29 -22 0 -41 9 -61 29
l-29 29 0 134 c1 141 6 159 51 178 36 15 91 4 111 -22z m220 -48 l16 -75 1 62
c1 80 7 93 42 93 l29 0 0 -190 0 -190 -34 0 -34 0 -12 68 c-21 110 -29 115
-29 20 l-1 -88 -35 0 -35 0 0 191 0 190 38 -3 37 -3 17 -75z m501 68 c31 -16
46 -39 47 -70 0 -25 -3 -28 -35 -28 -29 0 -35 4 -35 21 0 14 -5 19 -17 17 -32
-6 -24 -29 33 -88 54 -57 58 -64 58 -109 0 -82 -39 -120 -110 -106 -40 7 -60
34 -70 93 l-7 43 39 -3 c26 -2 39 -8 40 -18 3 -44 5 -50 19 -50 10 0 15 10 15
33 0 26 -9 42 -41 72 -23 22 -48 55 -55 73 -36 82 42 161 119 120z m227 -53
c0 -58 2 -65 20 -65 18 0 20 7 20 65 l0 65 35 0 35 0 0 -190 0 -190 -35 0 -35
0 0 90 c0 83 -1 90 -20 90 -19 0 -20 -7 -20 -90 l0 -90 -35 0 -35 0 0 190 0
190 35 0 35 0 0 -65z m374 43 c3 -13 10 -81 16 -153 6 -71 13 -147 16 -167 6
-38 6 -38 -30 -38 -33 0 -36 2 -36 30 0 27 -3 30 -30 30 -27 0 -30 -3 -30 -30
0 -28 -3 -30 -36 -30 -36 0 -36 0 -30 38 3 20 10 96 16 167 16 189 10 175 80
175 54 0 60 -2 64 -22z m285 -2 c40 -42 40 -147 0 -187 -10 -10 -32 -19 -49
-19 l-30 0 0 -75 0 -75 -35 0 -35 0 0 190 0 190 63 0 c54 0 67 -4 86 -24z
m281 -10 c0 -33 -2 -35 -37 -38 -36 -3 -38 -5 -38 -38 0 -33 2 -35 38 -38 36
-3 38 -5 35 -35 -3 -29 -7 -32 -40 -35 -36 -3 -36 -4 -35 -45 2 -41 3 -42 40
-45 35 -3 37 -5 37 -38 l0 -34 -75 0 -75 0 0 190 0 190 75 0 75 0 0 -34z
m-1776 -533 c16 -84 18 -103 7 -103 -6 0 -11 7 -11 15 0 8 -4 15 -10 15 -5 0
-10 -7 -10 -15 0 -8 -5 -15 -11 -15 -6 0 -8 8 -6 18 3 9 8 38 12 65 7 52 21
62 29 20z m124 -1 c4 -26 -15 -30 -20 -4 -3 10 -6 5 -9 -14 -3 -17 -2 -40 2
-50 7 -17 8 -17 8 -1 1 9 6 17 12 17 6 0 9 -10 7 -22 -2 -15 -10 -23 -23 -23
-17 0 -20 8 -23 49 -2 27 -1 55 2 63 9 22 41 11 44 -15z m106 -19 c4 -27 9
-56 12 -65 3 -10 1 -18 -5 -18 -6 0 -11 7 -11 15 0 20 -16 19 -30 -2 -9 -14
-10 -7 -6 31 3 27 6 57 6 67 0 11 6 19 14 19 9 0 16 -17 20 -47z m120 31 c3
-9 6 -31 6 -49 0 -49 -9 -65 -36 -65 -23 0 -24 3 -24 65 0 62 1 65 24 65 13 0
27 -7 30 -16z m99 9 c-7 -2 -13 -16 -13 -29 0 -13 6 -24 13 -25 10 0 10 -2 0
-6 -7 -2 -13 -15 -13 -28 0 -13 6 -26 13 -28 6 -3 2 -6 -10 -6 -22 -1 -23 3
-23 64 0 61 1 65 23 64 12 0 16 -3 10 -6z m93 -34 c7 -45 24 -35 24 14 0 17 5
27 15 27 12 0 15 -14 15 -65 0 -37 -4 -65 -10 -65 -5 0 -11 12 -11 28 l-2 27
-4 -27 c-5 -30 -23 -39 -23 -11 0 15 -2 14 -15 -3 -13 -17 -14 -13 -15 49 0
74 16 91 26 26z m134 -24 c0 -37 -4 -65 -10 -65 -6 0 -10 28 -10 65 0 37 4 65
10 65 6 0 10 -28 10 -65z m104 18 c4 -27 9 -56 12 -65 3 -10 1 -18 -5 -18 -6
0 -11 7 -11 15 0 20 -10 19 -27 -2 -12 -16 -13 -11 -8 42 4 33 9 63 12 68 11
18 21 3 27 -40z"/>
<path d="M2138 3653 c6 -2 18 -2 25 0 6 3 1 5 -13 5 -14 0 -19 -2 -12 -5z"/>
<path d="M2070 3640 c-18 -12 -2 -12 25 0 13 6 15 9 5 9 -8 0 -22 -4 -30 -9z"/>
<path d="M2099 3625 c-156 -57 -267 -188 -309 -364 -20 -85 -9 -233 24 -303
55 -117 161 -200 269 -212 26 -3 47 -2 47 2 0 4 -15 23 -33 42 -36 39 -151
194 -197 267 -34 53 -40 115 -16 162 28 54 174 177 262 221 73 37 86 41 113
32 21 -8 39 -7 58 0 23 8 37 7 63 -5 38 -17 110 -27 110 -16 0 31 -101 69
-183 69 -101 0 -248 -57 -320 -124 -15 -14 -30 -26 -33 -26 -32 0 99 130 167
164 l54 28 -45 -7 c-25 -4 -57 -14 -72 -21 -39 -20 -35 0 5 30 39 30 98 56
147 66 31 7 29 8 -20 8 -30 0 -71 -5 -91 -13z"/>
<path d="M2025 3620 c-3 -6 1 -7 9 -4 18 7 21 14 7 14 -6 0 -13 -4 -16 -10z"/>
<path d="M1934 3554 l-39 -35 43 32 c38 30 48 39 39 39 -2 0 -21 -16 -43 -36z"/>
<path d="M1859 3473 c-13 -16 -12 -17 4 -4 9 7 17 15 17 17 0 8 -8 3 -21 -13z"/>
<path d="M2190 3450 c-18 -12 -2 -12 25 0 13 6 15 9 5 9 -8 0 -22 -4 -30 -9z"/>
<path d="M2438 3433 c7 -3 16 -2 19 1 4 3 -2 6 -13 5 -11 0 -14 -3 -6 -6z"/>
<path d="M1796 3365 c-9 -26 -7 -32 5 -12 6 10 9 21 6 23 -2 3 -7 -2 -11 -11z"/>
<path d="M1771 3284 c0 -11 3 -14 6 -6 3 7 2 16 -1 19 -3 4 -6 -2 -5 -13z"/>
<path d="M2165 3275 c-19 -18 -25 -34 -24 -67 0 -24 4 -52 9 -63 l9 -20 1 20
1 20 9 -20 c4 -12 6 5 3 42 -4 48 -2 68 11 88 21 32 12 32 -19 0z"/>
<path d="M1926 3249 c-41 -48 -52 -91 -36 -134 12 -32 97 -165 105 -165 3 0
-2 12 -12 28 -15 25 -14 24 22 -8 32 -29 36 -31 24 -10 -70 114 -73 124 -74
191 0 64 -1 66 -17 52 -26 -23 -22 -2 7 42 36 52 25 54 -19 4z"/>
<path d="M2021 3255 c-17 -20 -31 -47 -31 -61 0 -49 74 -164 106 -164 23 0 -4
54 -36 72 -29 16 -42 48 -20 48 7 0 7 6 0 19 -15 29 -12 68 6 96 23 36 11 31
-25 -10z"/>
<path d="M2271 3256 c-23 -25 -37 -83 -24 -103 10 -14 42 -21 41 -9 0 5 6 12
13 16 9 6 9 17 -4 47 -10 27 -12 44 -6 56 14 24 6 21 -20 -7z"/>
<path d="M1762 3230 c0 -14 2 -19 5 -12 2 6 2 18 0 25 -3 6 -5 1 -5 -13z"/>
<path d="M1752 3130 c0 -14 2 -19 5 -12 2 6 2 18 0 25 -3 6 -5 1 -5 -13z"/>
<path d="M1762 3060 c0 -14 2 -19 5 -12 2 6 2 18 0 25 -3 6 -5 1 -5 -13z"/>
<path d="M1790 2954 c0 -6 7 -19 16 -30 14 -18 14 -18 3 6 -14 31 -19 36 -19
24z"/>
<path d="M1830 2880 c6 -11 13 -20 16 -20 2 0 0 9 -6 20 -6 11 -13 20 -16 20
-2 0 0 -9 6 -20z"/>
<path d="M2480 2698 c0 -9 5 -20 10 -23 13 -8 13 5 0 25 -8 13 -10 13 -10 -2z"/>
<path d="M2288 2673 c6 -2 18 -2 25 0 6 3 1 5 -13 5 -14 0 -19 -2 -12 -5z"/>
<path d="M2423 2673 c9 -2 23 -2 30 0 6 3 -1 5 -18 5 -16 0 -22 -2 -12 -5z"/>
<path d="M2215 2641 c4 -7 28 -26 53 -42 28 -18 39 -29 28 -29 -15 0 -16 -3
-6 -15 17 -21 -8 -20 -38 1 -30 21 -29 2 3 -51 23 -40 41 -52 105 -71 l25 -8
-30 -7 c-22 -5 -12 -7 37 -8 76 -1 188 20 242 46 l36 17 -31 13 c-26 11 -35
10 -59 -2 -16 -8 -39 -15 -52 -15 -22 1 -22 1 5 16 34 19 35 27 1 14 -14 -6
-46 -10 -72 -9 l-47 1 45 11 45 11 -59 8 c-68 9 -85 18 -34 18 19 0 56 3 82 6
l47 7 -19 21 c-11 12 -24 29 -29 39 -8 16 -25 19 -129 21 -65 1 -128 6 -138
11 -14 6 -17 5 -11 -4z"/>
<path d="M2939 3277 c-25 -20 -67 -66 -93 -104 -147 -216 -136 -494 28 -658
141 -142 361 -128 520 33 100 100 154 227 162 377 l4 90 -19 -85 c-10 -47 -30
-111 -45 -142 -28 -60 -85 -143 -92 -135 -3 2 9 46 27 97 23 71 32 117 35 189
l4 96 -15 -52 c-17 -61 -47 -124 -68 -141 -11 -10 -12 -3 0 51 21 100 15 326
-8 311 -5 -3 -9 -23 -9 -44 0 -82 -42 -235 -93 -338 -44 -90 -104 -168 -178
-230 -60 -52 -79 -61 -79 -42 0 6 4 10 8 10 13 0 99 170 112 220 6 25 13 54
16 65 3 11 -8 -2 -24 -30 -35 -58 -97 -131 -86 -100 4 11 22 59 41 108 38 99
73 256 73 328 0 99 -40 150 -123 157 -47 4 -56 1 -98 -31z"/>
<path d="M3312 3140 c0 -14 2 -19 5 -12 2 6 2 18 0 25 -3 6 -5 1 -5 -13z"/>
<path d="M3272 3120 c0 -14 2 -19 5 -12 2 6 2 18 0 25 -3 6 -5 1 -5 -13z"/>
<path d="M3302 3060 c0 -14 2 -19 5 -12 2 6 2 18 0 25 -3 6 -5 1 -5 -13z"/>
<path d="M3291 3004 c0 -11 3 -14 6 -6 3 7 2 16 -1 19 -3 4 -6 -2 -5 -13z"/>
<path d="M1640 2064 c0 -28 3 -35 18 -32 11 2 18 14 20 36 3 27 0 32 -17 32
-17 0 -21 -6 -21 -36z"/>
<path d="M1925 2088 c-3 -8 -4 -61 -3 -119 2 -84 6 -104 18 -104 12 0 15 19
15 114 0 83 -3 115 -12 118 -7 3 -15 -2 -18 -9z"/>
<path d="M3260 2040 c0 -30 -3 -72 -6 -92 -6 -34 -4 -38 15 -38 20 0 20 3 15
78 -8 95 -23 129 -24 52z"/>
<path d="M3540 2056 c0 -34 4 -46 15 -46 31 0 33 82 2 88 -14 3 -17 -4 -17
-42z"/>
<path d="M2107 1560 c-3 -11 -1 -20 4 -20 5 0 9 9 9 20 0 11 -2 20 -4 20 -2 0
-6 -9 -9 -20z"/>
<path d="M2332 1560 c0 -14 2 -19 5 -12 2 6 2 18 0 25 -3 6 -5 1 -5 -13z"/>
<path d="M2440 1565 c0 -25 5 -45 10 -45 6 0 10 20 10 45 0 25 -4 45 -10 45
-5 0 -10 -20 -10 -45z"/>
<path d="M2882 1565 c0 -16 2 -22 5 -12 2 9 2 23 0 30 -3 6 -5 -1 -5 -18z"/>
</g>
</svg>
